<svg version="1.1" id="Layer_1" xmlns="http://www.w3.org/2000/svg" xmlns:xlink="http://www.w3.org/1999/xlink" x="0px" y="0px"
	 width="100%" viewBox="0 0 750 750" enable-background="new 0 0 750 750" xml:space="preserve">
<path fill="#FFFFFF" opacity="1.000000" stroke="none" 
	d="
M406.000000,751.000000 
	C270.666656,751.000000 135.833328,751.000000 1.000000,751.000000 
	C1.000000,501.000000 1.000000,251.000000 1.000000,1.000000 
	C251.000000,1.000000 501.000000,1.000000 751.000000,1.000000 
	C751.000000,251.000000 751.000000,501.000000 751.000000,751.000000 
	C636.166687,751.000000 521.333313,751.000000 406.000000,751.000000 
M631.090515,372.866577 
	C634.062012,377.678711 636.966919,382.534302 640.054199,387.270935 
	C640.780945,388.385925 642.108276,389.859558 643.184082,389.880371 
	C653.432861,390.078156 663.686951,389.998413 674.670044,389.998413 
	C673.498413,387.918945 672.760498,386.490326 671.915222,385.128418 
	C666.299255,376.080414 660.776062,366.971161 654.957458,358.054932 
	C653.238464,355.420746 653.358398,353.545258 654.929077,350.940796 
	C660.426331,341.825500 665.668640,332.556091 670.978149,323.328186 
	C671.673096,322.120361 672.196350,320.813690 672.962646,319.210602 
	C662.817200,319.210602 653.317078,319.358704 643.826477,319.124573 
	C640.794006,319.049774 639.348083,320.191620 638.158508,322.746002 
	C636.104431,327.156586 633.756897,331.430511 631.116089,336.572632 
	C628.220093,331.094727 625.942017,326.513153 623.372253,322.101562 
	C622.660583,320.879761 621.099121,319.366150 619.898132,319.339996 
	C609.795837,319.119904 599.686646,319.214630 588.988464,319.214630 
	C589.977905,321.170471 590.643555,322.638763 591.438721,324.033264 
	C596.547302,332.992798 601.554260,342.014740 606.886658,350.839691 
	C608.608215,353.688843 608.375549,355.715332 606.651794,358.404480 
	C600.726501,367.648193 595.049072,377.051056 589.309814,386.413300 
	C588.688965,387.426056 588.280762,388.569275 587.608582,390.005341 
	C598.045715,390.005341 607.871643,390.031738 617.696960,389.967316 
	C618.760742,389.960358 620.384460,389.765656 620.793396,389.084625 
	C623.923950,383.870483 626.817749,378.514191 630.232727,372.779816 
	C630.374817,372.631805 630.516846,372.483795 631.090515,372.866577 
M305.047119,391.991852 
	C306.545044,391.992950 308.043579,392.023071 309.540802,391.990784 
	C328.891052,391.573578 345.145599,375.734100 345.942596,356.528198 
	C346.783051,336.275391 332.221100,319.458588 311.932617,317.251770 
	C293.178802,315.211884 275.117798,328.958557 271.846527,347.839294 
	C271.394684,350.447174 271.120148,353.120331 271.110138,355.764557 
	C271.045471,372.860168 271.076996,389.956146 271.076996,407.275269 
	C281.628052,407.275269 291.695679,407.275269 302.172394,407.275269 
	C302.172394,402.009613 302.172394,397.030090 302.830078,391.989502 
	C303.269501,391.963074 303.708893,391.936646 305.047119,391.991852 
M378.954376,389.259186 
	C378.993469,385.765930 379.057434,382.272736 379.066681,378.779419 
	C379.088684,370.457764 379.006165,362.134857 379.129639,353.814911 
	C379.180206,350.408020 380.901245,347.969055 384.573975,347.973938 
	C388.258453,347.978821 389.795532,350.424561 389.973022,353.845215 
	C390.059113,355.505249 389.997253,357.173096 389.997406,358.837402 
	C389.998352,369.103058 389.997894,379.368683 389.997894,389.731201 
	C400.549835,389.731201 410.602356,389.731201 420.822632,389.731201 
	C420.822632,376.015015 421.541260,362.520477 420.649506,349.133270 
	C419.399902,330.373901 404.949402,317.410156 386.294922,316.922058 
	C366.301086,316.398987 351.232788,327.853394 348.941711,346.708679 
	C347.605225,357.708008 348.282867,368.953552 348.085236,380.088867 
	C348.027588,383.337860 348.076385,386.588745 348.076385,389.908295 
	C358.618744,389.908295 368.430389,389.908295 378.954376,389.259186 
M268.409454,364.777191 
	C276.442932,337.319672 250.960266,310.634308 222.419540,318.564270 
	C204.999481,323.404388 193.698227,339.723602 195.092438,357.802063 
	C196.419647,375.012085 210.189972,389.350159 227.722656,391.777710 
	C245.410538,394.226715 261.962189,383.491425 268.409454,364.777191 
M497.824921,357.204163 
	C497.583649,353.899292 497.634308,350.542053 497.052765,347.298187 
	C493.739777,328.817902 475.559662,315.232666 457.046326,317.253418 
	C436.751251,319.468658 422.276886,336.175476 423.043427,356.500702 
	C423.749969,375.234558 439.676117,391.051636 458.383575,392.002716 
	C477.827728,392.991302 495.634796,378.593140 497.824921,357.204163 
M192.129745,321.480865 
	C192.129745,315.049469 192.129745,308.618042 192.129745,302.259094 
	C167.829712,302.259094 144.136108,302.259094 120.453377,302.259094 
	C120.453377,312.720245 120.453377,322.790009 120.453377,333.266602 
	C127.002777,333.266602 133.280807,333.266602 140.102005,333.266602 
	C140.102005,352.388458 140.102005,371.106262 140.102005,389.638123 
	C151.212936,389.638123 161.767654,389.638123 172.818268,389.638123 
	C172.818268,370.697357 172.818268,352.117493 172.818268,333.210938 
	C179.454041,333.210938 185.585236,333.210938 192.129776,333.210938 
	C192.129776,329.408722 192.129776,325.939301 192.129745,321.480865 
M552.773193,330.528870 
	C552.773193,326.916138 552.773193,323.303406 552.773193,319.187103 
	C545.299133,319.187103 538.395569,319.187103 530.991089,319.187103 
	C530.991089,313.120483 530.991089,307.562317 530.991089,302.072662 
	C520.408264,302.072662 510.350067,302.072662 500.155914,302.072662 
	C500.155914,321.891479 499.785706,341.372070 500.289368,360.830017 
	C500.611664,373.282867 506.501770,382.787720 518.655090,387.421753 
	C529.714722,391.638763 541.171387,389.606384 552.447998,389.908661 
	C552.447998,379.853577 552.447998,370.460907 552.447998,360.683533 
	C548.488281,360.683533 544.846619,360.767181 541.209900,360.667969 
	C529.878113,360.358948 531.000427,363.313324 531.183411,349.808502 
	C531.187195,349.527618 531.507446,349.251007 532.004517,348.448669 
	C538.594177,348.448669 545.511292,348.448669 552.773132,348.448669 
	C552.773132,342.457123 552.773132,336.987396 552.773193,330.528870 
M586.170532,355.500031 
	C586.170532,343.562836 586.170532,331.625641 586.170532,319.570496 
	C575.583557,319.570496 565.545349,319.570496 555.447510,319.570496 
	C555.447510,343.159180 555.447510,366.386444 555.447510,389.702972 
	C565.788208,389.702972 575.846497,389.702972 586.170532,389.702972 
	C586.170532,378.434540 586.170532,367.467285 586.170532,355.500031 
M565.595642,304.993713 
	C570.915649,304.993713 576.235596,304.993713 582.304199,304.993713 
	C577.803467,297.715790 573.858704,291.336853 569.638367,284.512329 
	C565.340698,291.541992 561.437805,297.926056 557.116882,304.993713 
	C560.371399,304.993713 562.501587,304.993713 565.595642,304.993713 
z"/>
<path fill="#024BAD" opacity="1.000000" stroke="none" 
	d="
M302.172363,392.050537 
	C302.172394,397.030090 302.172394,402.009613 302.172394,407.275269 
	C291.695679,407.275269 281.628052,407.275269 271.076996,407.275269 
	C271.076996,389.956146 271.045471,372.860168 271.110138,355.764557 
	C271.120148,353.120331 271.394684,350.447174 271.846527,347.839294 
	C275.117798,328.958557 293.178802,315.211884 311.932617,317.251770 
	C332.221100,319.458588 346.783051,336.275391 345.942596,356.528198 
	C345.145599,375.734100 328.891052,391.573578 309.540802,391.990784 
	C308.043579,392.023071 306.545044,391.992950 304.559265,391.489685 
	C304.101990,381.024902 304.132599,371.062225 304.579163,361.064301 
	C305.986847,361.024536 306.981506,361.067688 307.969788,361.007263 
	C312.321381,360.741119 315.257263,358.034546 314.956848,354.340149 
	C314.663483,350.731995 312.486145,348.600555 308.947754,348.179230 
	C305.321869,347.747498 302.326355,350.794495 302.082550,355.017609 
	C301.968658,356.990906 302.123993,358.979736 302.066650,361.424927 
	C302.041443,371.942352 302.106903,381.996460 302.172363,392.050537 
z"/>
<path fill="#014BAC" opacity="1.000000" stroke="none" 
	d="
M378.598206,389.583740 
	C368.430389,389.908295 358.618744,389.908295 348.076385,389.908295 
	C348.076385,386.588745 348.027588,383.337860 348.085236,380.088867 
	C348.282867,368.953552 347.605225,357.708008 348.941711,346.708679 
	C351.232788,327.853394 366.301086,316.398987 386.294922,316.922058 
	C404.949402,317.410156 419.399902,330.373901 420.649506,349.133270 
	C421.541260,362.520477 420.822632,376.015015 420.822632,389.731201 
	C410.602356,389.731201 400.549835,389.731201 389.997894,389.731201 
	C389.997894,379.368683 389.998352,369.103058 389.997406,358.837402 
	C389.997253,357.173096 390.059113,355.505249 389.973022,353.845215 
	C389.795532,350.424561 388.258453,347.978821 384.573975,347.973938 
	C380.901245,347.969055 379.180206,350.408020 379.129639,353.814911 
	C379.006165,362.134857 379.088684,370.457764 379.066681,378.779419 
	C379.057434,382.272736 378.993469,385.765930 378.598206,389.583740 
z"/>
<path fill="#034CAD" opacity="1.000000" stroke="none" 
	d="
M629.785156,373.202087 
	C626.817749,378.514191 623.923950,383.870483 620.793396,389.084625 
	C620.384460,389.765656 618.760742,389.960358 617.696960,389.967316 
	C607.871643,390.031738 598.045715,390.005341 587.608582,390.005341 
	C588.280762,388.569275 588.688965,387.426056 589.309814,386.413300 
	C595.049072,377.051056 600.726501,367.648193 606.651794,358.404480 
	C608.375549,355.715332 608.608215,353.688843 606.886658,350.839691 
	C601.554260,342.014740 596.547302,332.992798 591.438721,324.033264 
	C590.643555,322.638763 589.977905,321.170471 588.988464,319.214630 
	C599.686646,319.214630 609.795837,319.119904 619.898132,319.339996 
	C621.099121,319.366150 622.660583,320.879761 623.372253,322.101562 
	C625.942017,326.513153 628.220093,331.094727 631.116089,336.572632 
	C633.756897,331.430511 636.104431,327.156586 638.158508,322.746002 
	C639.348083,320.191620 640.794006,319.049774 643.826477,319.124573 
	C653.317078,319.358704 662.817200,319.210602 672.962646,319.210602 
	C672.196350,320.813690 671.673096,322.120361 670.978149,323.328186 
	C665.668640,332.556091 660.426331,341.825500 654.929077,350.940796 
	C653.358398,353.545258 653.238464,355.420746 654.957458,358.054932 
	C660.776062,366.971161 666.299255,376.080414 671.915222,385.128418 
	C672.760498,386.490326 673.498413,387.918945 674.670044,389.998413 
	C663.686951,389.998413 653.432861,390.078156 643.184082,389.880371 
	C642.108276,389.859558 640.780945,388.385925 640.054199,387.270935 
	C636.966919,382.534302 634.062012,377.678711 630.771912,372.354370 
	C630.148865,371.404907 629.844482,370.967651 629.429688,370.269104 
	C628.971924,369.583221 628.624451,369.158600 628.237549,368.500183 
	C628.088623,367.962250 627.913757,367.702057 627.555359,367.220947 
	C627.090393,366.502045 626.743591,366.047943 626.190063,365.372314 
	C625.786255,365.600250 625.589355,366.049683 625.508179,366.759033 
	C625.971985,367.452209 626.320007,367.885498 626.713379,368.543335 
	C626.878601,369.054749 627.054077,369.302155 627.391724,369.775696 
	C627.832703,370.500061 628.167053,370.958771 628.608887,371.680542 
	C629.072632,372.363129 629.428894,372.782593 629.785156,373.202087 
z"/>
<path fill="#024BAD" opacity="1.000000" stroke="none" 
	d="
M268.287750,365.161743 
	C261.962189,383.491425 245.410538,394.226715 227.722656,391.777710 
	C210.189972,389.350159 196.419647,375.012085 195.092438,357.802063 
	C193.698227,339.723602 204.999481,323.404388 222.419540,318.564270 
	C250.960266,310.634308 276.442932,337.319672 268.287750,365.161743 
M232.480362,348.116425 
	C228.495636,348.600677 225.542923,350.845093 226.267960,354.796600 
	C226.688690,357.089600 229.481491,360.262909 231.564941,360.564270 
	C233.637726,360.864044 237.288086,358.588928 238.247330,356.517181 
	C240.230301,352.234375 237.470627,349.452423 232.480362,348.116425 
z"/>
<path fill="#024BAD" opacity="1.000000" stroke="none" 
	d="
M497.795898,357.649780 
	C495.634796,378.593140 477.827728,392.991302 458.383575,392.002716 
	C439.676117,391.051636 423.749969,375.234558 423.043427,356.500702 
	C422.276886,336.175476 436.751251,319.468658 457.046326,317.253418 
	C475.559662,315.232666 493.739777,328.817902 497.052765,347.298187 
	C497.634308,350.542053 497.583649,353.899292 497.795898,357.649780 
M456.804138,359.858032 
	C461.579346,361.707794 465.155579,360.572815 466.460693,356.604370 
	C467.702637,352.828217 466.174316,349.720947 462.588806,348.829071 
	C460.508453,348.311676 457.285217,349.200104 455.679352,350.665070 
	C452.822906,353.270813 453.521423,356.595428 456.804138,359.858032 
z"/>
<path fill="#024BAD" opacity="1.000000" stroke="none" 
	d="
M192.129761,321.975372 
	C192.129776,325.939301 192.129776,329.408722 192.129776,333.210938 
	C185.585236,333.210938 179.454041,333.210938 172.818268,333.210938 
	C172.818268,352.117493 172.818268,370.697357 172.818268,389.638123 
	C161.767654,389.638123 151.212936,389.638123 140.102005,389.638123 
	C140.102005,371.106262 140.102005,352.388458 140.102005,333.266602 
	C133.280807,333.266602 127.002777,333.266602 120.453377,333.266602 
	C120.453377,322.790009 120.453377,312.720245 120.453377,302.259094 
	C144.136108,302.259094 167.829712,302.259094 192.129745,302.259094 
	C192.129745,308.618042 192.129745,315.049469 192.129761,321.975372 
z"/>
<path fill="#034CAD" opacity="1.000000" stroke="none" 
	d="
M552.773193,331.023285 
	C552.773132,336.987396 552.773132,342.457123 552.773132,348.448669 
	C545.511292,348.448669 538.594177,348.448669 532.004517,348.448669 
	C531.507446,349.251007 531.187195,349.527618 531.183411,349.808502 
	C531.000427,363.313324 529.878113,360.358948 541.209900,360.667969 
	C544.846619,360.767181 548.488281,360.683533 552.447998,360.683533 
	C552.447998,370.460907 552.447998,379.853577 552.447998,389.908661 
	C541.171387,389.606384 529.714722,391.638763 518.655090,387.421753 
	C506.501770,382.787720 500.611664,373.282867 500.289368,360.830017 
	C499.785706,341.372070 500.155914,321.891479 500.155914,302.072662 
	C510.350067,302.072662 520.408264,302.072662 530.991089,302.072662 
	C530.991089,307.562317 530.991089,313.120483 530.991089,319.187103 
	C538.395569,319.187103 545.299133,319.187103 552.773193,319.187103 
	C552.773193,323.303406 552.773193,326.916138 552.773193,331.023285 
z"/>
<path fill="#034CAD" opacity="1.000000" stroke="none" 
	d="
M586.170532,356.000061 
	C586.170532,367.467285 586.170532,378.434540 586.170532,389.702972 
	C575.846497,389.702972 565.788208,389.702972 555.447510,389.702972 
	C555.447510,366.386444 555.447510,343.159180 555.447510,319.570496 
	C565.545349,319.570496 575.583557,319.570496 586.170532,319.570496 
	C586.170532,331.625641 586.170532,343.562836 586.170532,356.000061 
z"/>
<path fill="#034CAD" opacity="1.000000" stroke="none" 
	d="
M565.113770,304.993713 
	C562.501587,304.993713 560.371399,304.993713 557.116882,304.993713 
	C561.437805,297.926056 565.340698,291.541992 569.638367,284.512329 
	C573.858704,291.336853 577.803467,297.715790 582.304199,304.993713 
	C576.235596,304.993713 570.915649,304.993713 565.113770,304.993713 
z"/>
<path fill="#C6D6EC" opacity="1.000000" stroke="none" 
	d="
M304.163208,361.099579 
	C304.132599,371.062225 304.101990,381.024902 304.109863,391.448883 
	C303.708893,391.936646 303.269501,391.963074 302.501221,392.020020 
	C302.106903,381.996460 302.041443,371.942352 302.400330,361.457275 
	C303.270844,361.050720 303.717010,361.075165 304.163208,361.099579 
z"/>
<path fill="#F5F8FC" opacity="1.000000" stroke="none" 
	d="
M304.579163,361.064301 
	C303.717010,361.075165 303.270844,361.050720 302.490997,360.993927 
	C302.123993,358.979736 301.968658,356.990906 302.082550,355.017609 
	C302.326355,350.794495 305.321869,347.747498 308.947754,348.179230 
	C312.486145,348.600555 314.663483,350.731995 314.956848,354.340149 
	C315.257263,358.034546 312.321381,360.741119 307.969788,361.007263 
	C306.981506,361.067688 305.986847,361.024536 304.579163,361.064301 
z"/>
<path fill="#FFFFFF" opacity="1.000000" stroke="none" 
	d="
M626.396851,365.593842 
	C626.743591,366.047943 627.090393,366.502045 627.297180,367.420990 
	C626.994202,368.030182 626.831177,368.174469 626.668091,368.318787 
	C626.320007,367.885498 625.971985,367.452209 625.766968,366.541199 
	C626.072205,365.906952 626.234497,365.750397 626.396851,365.593842 
z"/>
<path fill="#FFFFFF" opacity="1.000000" stroke="none" 
	d="
M628.276978,368.733978 
	C628.624451,369.158600 628.971924,369.583221 629.168579,370.489807 
	C628.845703,371.120361 628.673584,371.268921 628.501465,371.417480 
	C628.167053,370.958771 627.832703,370.500061 627.648560,369.592590 
	C627.958130,369.007202 628.117554,368.870605 628.276978,368.733978 
z"/>
<path fill="#FFFFFF" opacity="1.000000" stroke="none" 
	d="
M630.008911,372.990967 
	C629.428894,372.782593 629.072632,372.363129 628.608887,371.680542 
	C628.673584,371.268921 628.845703,371.120361 629.278931,370.751099 
	C629.844482,370.967651 630.148865,371.404907 630.556030,372.088989 
	C630.516846,372.483795 630.374817,372.631805 630.008911,372.990967 
z"/>
<path fill="#FFFFFF" opacity="1.000000" stroke="none" 
	d="
M625.651184,366.281311 
	C625.589355,366.049683 625.786255,365.600250 626.190063,365.372314 
	C626.234497,365.750397 626.072205,365.906952 625.651184,366.281311 
z"/>
<path fill="#FFFFFF" opacity="1.000000" stroke="none" 
	d="
M627.415344,367.685852 
	C627.913757,367.702057 628.088623,367.962250 628.237549,368.500183 
	C628.117554,368.870605 627.958130,369.007202 627.541992,369.326935 
	C627.054077,369.302155 626.878601,369.054749 626.713379,368.543335 
	C626.831177,368.174469 626.994202,368.030182 627.415344,367.685852 
z"/>
<path fill="#F5F8FC" opacity="1.000000" stroke="none" 
	d="
M232.861816,348.144043 
	C237.470627,349.452423 240.230301,352.234375 238.247330,356.517181 
	C237.288086,358.588928 233.637726,360.864044 231.564941,360.564270 
	C229.481491,360.262909 226.688690,357.089600 226.267960,354.796600 
	C225.542923,350.845093 228.495636,348.600677 232.861816,348.144043 
z"/>
<path fill="#F5F8FC" opacity="1.000000" stroke="none" 
	d="
M456.498169,359.611694 
	C453.521423,356.595428 452.822906,353.270813 455.679352,350.665070 
	C457.285217,349.200104 460.508453,348.311676 462.588806,348.829071 
	C466.174316,349.720947 467.702637,352.828217 466.460693,356.604370 
	C465.155579,360.572815 461.579346,361.707794 456.498169,359.611694 
z"/>
</svg>