<svg version="1.2" xmlns="http://www.w3.org/2000/svg" viewBox="2708 402 560 125" width="560" height="125">
	<style>
		.s0 { fill: #fff } 
		.s1 { fill: #fff } 
		.s2 { fill: #fff } 
	</style>
	<g id="Layer 1">
		<g id="Folder 1">
			<g id="Folder 2">
				<path class="s0" d="m2892.67 511.05c0 4.98 0 9.96 0 15.23-10.47 0-20.54 0-31.09 0 0-17.32-0.03-34.42 0.03-51.52 0.01-2.64 0.28-5.31 0.74-7.92 3.27-18.88 21.33-32.63 40.08-30.59 20.29 2.21 34.85 19.03 34.01 39.28-0.79 19.2-17.05 35.04-36.4 35.46-1.5 0.03-2.99 0-4.98-0.5-0.46-10.47-0.43-20.43 0.02-30.43 1.41-0.04 2.4 0.01 3.39-0.05 4.35-0.27 7.29-2.98 6.99-6.67-0.3-3.61-2.47-5.74-6.01-6.16-3.63-0.43-6.62 2.61-6.87 6.84-0.11 1.97 0.04 3.96-0.01 6.4-0.03 10.52 0.04 20.58 0.1 30.63z"/>
				<path class="s1" d="m2969.1 508.58c-10.17 0.33-19.98 0.33-30.52 0.33 0-3.32-0.05-6.57 0.01-9.82 0.19-11.14-0.48-22.38 0.85-33.38 2.29-18.86 17.36-30.31 37.35-29.79 18.66 0.49 33.11 13.45 34.36 32.21 0.89 13.39 0.17 26.89 0.17 40.6-10.22 0-20.27 0-30.82 0 0-10.36 0-20.63 0-30.89 0-1.67 0.06-3.33-0.03-4.99-0.17-3.43-1.71-5.87-5.4-5.88-3.67 0-5.39 2.44-5.44 5.84-0.12 8.32-0.04 16.65-0.06 24.97-0.01 3.49-0.08 6.99-0.47 10.8z"/>
				<path class="s2" d="m3220.29 492.2c-2.97 5.31-5.87 10.67-9 15.88-0.41 0.69-2.03 0.88-3.09 0.89-9.83 0.06-19.65 0.04-30.09 0.04 0.67-1.44 1.08-2.58 1.7-3.6 5.74-9.36 11.42-18.76 17.34-28.01 1.73-2.68 1.96-4.71 0.24-7.56-5.34-8.83-10.34-17.85-15.45-26.81-0.8-1.39-1.46-2.86-2.45-4.82 10.7 0 20.81-0.09 30.91 0.13 1.2 0.03 2.76 1.54 3.47 2.76 2.57 4.41 4.85 8.99 7.75 14.47 2.64-5.14 4.98-9.41 7.04-13.82 1.19-2.56 2.63-3.7 5.67-3.63 9.49 0.24 18.99 0.09 29.13 0.09-0.76 1.6-1.29 2.91-1.98 4.12-5.31 9.23-10.55 18.5-16.05 27.61-1.57 2.61-1.69 4.48 0.03 7.11 5.82 8.92 11.34 18.03 16.96 27.08 0.84 1.36 1.58 2.79 2.75 4.87-10.98 0-21.24 0.08-31.49-0.12-1.07-0.02-2.4-1.49-3.13-2.61-3.08-4.74-5.99-9.59-9.28-14.92-0.62-0.95-0.93-1.38-1.34-2.08-0.46-0.69-0.81-1.11-1.19-1.77-0.15-0.54-0.33-0.8-0.68-1.28-0.47-0.72-0.82-1.17-1.37-1.85-0.4 0.23-0.6 0.68-0.68 1.39 0.46 0.69 0.81 1.13 1.2 1.78 0.17 0.51 0.34 0.76 0.68 1.24 0.44 0.72 0.78 1.18 1.22 1.9 0.46 0.68 0.82 1.1 1.18 1.52z"/>
				<path class="s0" d="m2858.79 484.16c-6.33 18.33-22.88 29.07-40.57 26.62-17.53-2.43-31.3-16.77-32.63-33.98-1.39-18.08 9.91-34.4 27.33-39.24 28.54-7.93 54.02 18.76 45.87 46.6zm-35.81-17.04c-3.98 0.48-6.94 2.73-6.21 6.68 0.42 2.29 3.21 5.46 5.29 5.76 2.08 0.3 5.73-1.97 6.69-4.04 1.98-4.29-0.78-7.07-5.77-8.4z"/>
				<path class="s0" d="m3088.3 476.65c-2.17 20.94-19.97 35.34-39.42 34.35-18.7-0.95-34.63-16.77-35.34-35.5-0.76-20.32 13.71-37.03 34.01-39.25 18.51-2.02 36.69 11.57 40 30.05 0.58 3.24 0.53 6.6 0.75 10.35zm-41 2.21c4.78 1.85 8.36 0.71 9.66-3.26 1.24-3.77-0.29-6.88-3.87-7.77-2.08-0.52-5.3 0.37-6.91 1.84-2.86 2.6-2.16 5.93 1.12 9.19z"/>
				<path class="s0" d="m2782.63 440.98c0 3.96 0 7.43 0 11.23-6.54 0-12.68 0-19.31 0 0 18.91 0 37.49 0 56.43-11.05 0-21.61 0-32.72 0 0-18.53 0-37.25 0-56.37-6.82 0-13.1 0-19.65 0 0-10.48 0-20.55 0-31.01 23.69 0 47.38 0 71.68 0 0 6.36 0 12.79 0 19.72z"/>
				<path class="s2" d="m3143.27 450.02c0 5.97 0 11.44 0 17.43q-10.89 0-20.77 0c-0.49 0.8-0.81 1.08-0.82 1.36-0.18 13.5-1.3 10.55 10.03 10.86 3.64 0.1 7.28 0.01 11.24 0.01 0 9.78 0 19.17 0 29.23-11.28-0.3-22.74 1.73-33.79-2.49-12.16-4.63-18.05-14.14-18.37-26.59-0.5-19.46-0.13-38.94-0.13-58.76 10.19 0 20.25 0 30.83 0 0 5.49 0 11.05 0 17.12 7.41 0 14.31 0 21.78 0 0 4.11 0 7.73 0 11.83z"/>
				<path class="s2" d="m3176.67 475c0 11.47 0 22.43 0 33.7-10.32 0-20.38 0-30.72 0 0-23.31 0-46.54 0-70.13 10.1 0 20.13 0 30.72 0 0 12.06 0 23.99 0 36.43z"/>
				<path class="s2" d="m3155.61 423.99c-2.61 0-4.74 0-7.99 0 4.32-7.06 8.22-13.45 12.52-20.48 4.22 6.83 8.16 13.21 12.66 20.48-6.06 0-11.38 0-17.19 0z"/>
			</g>
		</g>
	</g>
</svg>      