<?xml version="1.0" encoding="utf-8"?>
<!-- Generator: Adobe Illustrator 27.9.0, SVG Export Plug-In . SVG Version: 6.00 Build 0)  -->
<svg version="1.1" id="Layer_1" xmlns="http://www.w3.org/2000/svg" xmlns:xlink="http://www.w3.org/1999/xlink" x="0px" y="0px"
	 viewBox="0 0 592 333" style="enable-background:new 0 0 592 333;" xml:space="preserve">
<style type="text/css">
	.st0{clip-path:url(#SVGID_00000139281987005618408220000011923283126504552589_);}
	.st1{clip-path:url(#SVGID_00000140705704055462639400000008833507948306513054_);fill:#002C54;}
	.st2{clip-path:url(#SVGID_00000140705704055462639400000008833507948306513054_);fill:#EF4365;}
</style>
<g id="Secondary_x5F_V_x5F_2C-Peacoat_x5F_CMYK_00000039839395134876530040000000004099001858644106_">
	<g>
		<defs>
			<rect id="SVGID_1_" x="53" y="13.7" width="486" height="305.5"/>
		</defs>
		<clipPath id="SVGID_00000160181853475468620980000008208545475991471521_">
			<use xlink:href="#SVGID_1_"  style="overflow:visible;"/>
		</clipPath>
		<g style="clip-path:url(#SVGID_00000160181853475468620980000008208545475991471521_);">
			<defs>
				<rect id="SVGID_00000051378848487820070050000008521284302430327426_" x="53" y="13.7" width="486" height="305.5"/>
			</defs>
			<clipPath id="SVGID_00000181085470893128866530000014227961288282260367_">
				<use xlink:href="#SVGID_00000051378848487820070050000008521284302430327426_"  style="overflow:visible;"/>
			</clipPath>
			<path style="clip-path:url(#SVGID_00000181085470893128866530000014227961288282260367_);fill:#002C54;" d="M97.9,316.6
				c-4.7,1.8-9.9,2.6-15.9,2.6c-19.4,0-29.1-9.4-29.1-28.1c0-17.7,9.7-26.6,29.1-26.6c5.9,0,11.2,0.9,15.9,2.6v9.1
				c-4.7-2-9.7-3-15.1-3c-13,0-19.4,6-19.4,17.9c0,13,6.5,19.4,19.4,19.4c5.4,0,10.4-1,15.1-3V316.6z"/>
			<path style="clip-path:url(#SVGID_00000181085470893128866530000014227961288282260367_);fill:#002C54;" d="M103.1,292
				c0-18.3,9-27.4,27.1-27.4c17.8,0,26.7,9.2,26.7,27.4c0,18.2-8.9,27.3-26.7,27.3C113,319.3,103.9,310.2,103.1,292 M130.2,310.6
				c10.9,0,16.3-6.3,16.3-18.8c0-12.4-5.4-18.5-16.3-18.5c-11.1,0-16.7,6.2-16.7,18.5C113.5,304.3,119.1,310.6,130.2,310.6"/>
			<polygon style="clip-path:url(#SVGID_00000181085470893128866530000014227961288282260367_);fill:#002C54;" points="164.8,318.9 
				164.8,264.9 175.1,264.9 193.5,305.8 211.4,264.9 221.4,264.9 221.4,318.9 212.1,318.9 212.1,281.3 197.5,318.9 189,318.9 
				174,281.3 174,318.9 			"/>
			<polygon style="clip-path:url(#SVGID_00000181085470893128866530000014227961288282260367_);fill:#002C54;" points="232.7,318.9 
				232.7,264.9 243.1,264.9 261.4,305.8 279.3,264.9 289.4,264.9 289.4,318.9 280.1,318.9 280.1,281.3 265.5,318.9 256.9,318.9 
				242,281.3 242,318.9 			"/>
			<polygon style="clip-path:url(#SVGID_00000181085470893128866530000014227961288282260367_);fill:#002C54;" points="350.6,264.9 
				326.9,318.9 316.1,318.9 293.5,264.9 305.4,264.9 322.1,306.2 338.8,264.9 			"/>
			<polygon style="clip-path:url(#SVGID_00000181085470893128866530000014227961288282260367_);fill:#002C54;" points="339.4,318.9 
				362.3,264.9 373.1,264.9 396.5,318.9 385.7,318.9 378.9,304.1 362,304.1 365.4,295.5 376.3,295.5 367.4,275.2 349.7,318.9 			"/>
			<path style="clip-path:url(#SVGID_00000181085470893128866530000014227961288282260367_);fill:#002C54;" d="M397.9,297.7v-32.8
				h10v32.8c0,8.6,4.4,12.9,13.2,12.9c8.8,0,13.2-4.3,13.2-12.9v-32.8h10v32.8c0,14.4-7.7,21.6-23.2,21.6
				C405.6,319.3,397.9,312.1,397.9,297.7"/>
			<polygon style="clip-path:url(#SVGID_00000181085470893128866530000014227961288282260367_);fill:#002C54;" points="464.5,264.9 
				464.5,310.2 489.7,310.2 489.7,318.9 454.5,318.9 454.5,264.9 			"/>
			<polygon style="clip-path:url(#SVGID_00000181085470893128866530000014227961288282260367_);fill:#002C54;" points="525.2,264.9 
				525.2,273.6 509.7,273.6 509.7,318.9 499.7,318.9 499.7,273.6 484.3,273.6 484.3,264.9 			"/>
			<path style="clip-path:url(#SVGID_00000181085470893128866530000014227961288282260367_);fill:#002C54;" d="M534.9,266.6
				c0.6,0,1.1,0.1,1.4,0.4c0.3,0.2,0.4,0.6,0.4,1.1c0,0.5-0.1,0.8-0.4,1c-0.3,0.2-0.6,0.3-1,0.4l1.5,2.3h-0.9l-1.4-2.2h-0.9v2.2
				h-0.8v-5.2H534.9z M534.5,268.9c0.2,0,0.4,0,0.5,0c0.2,0,0.3,0,0.4-0.1c0.1-0.1,0.2-0.1,0.3-0.3c0.1-0.1,0.1-0.3,0.1-0.5
				c0-0.2,0-0.3-0.1-0.4c-0.1-0.1-0.2-0.2-0.3-0.2c-0.1-0.1-0.2-0.1-0.4-0.1c-0.1,0-0.3,0-0.4,0h-1.1v1.6H534.5z"/>
			<path style="clip-path:url(#SVGID_00000181085470893128866530000014227961288282260367_);fill:#002C54;" d="M534.6,264.8
				c-2.4,0-4.4,2-4.4,4.4c0,2.4,2,4.4,4.4,4.4c2.4,0,4.4-2,4.4-4.4C539,266.8,537,264.8,534.6,264.8 M534.6,273
				c-2.1,0-3.8-1.7-3.8-3.8s1.7-3.8,3.8-3.8c2.1,0,3.8,1.7,3.8,3.8S536.7,273,534.6,273"/>
			<path style="clip-path:url(#SVGID_00000181085470893128866530000014227961288282260367_);fill:#EF4365;" d="M289.1,13.7l-87,50.2
				v96.6l87,50.2l87-50.2V64L289.1,13.7z M361.1,151.9l-71.9,41.5l-71.9-41.5V72.7l71.9-41.5l71.9,41.5V151.9z"/>
			<path style="clip-path:url(#SVGID_00000181085470893128866530000014227961288282260367_);fill:#EF4365;" d="M284.1,173.4
				c0,0.7-0.8,1.2-1.4,0.8L232,145c-0.9-0.5-1.4-1.5-1.4-2.5l0-56.5c0-0.7,0.8-1.2,1.4-0.8l50.6,29.2c0.9,0.5,1.4,1.5,1.4,2.5V173.4
				z"/>
			<path style="clip-path:url(#SVGID_00000181085470893128866530000014227961288282260367_);fill:#EF4365;" d="M339.5,77.4l-48.5,28
				c-1.2,0.7-2.7,0.7-3.9,0l-48.5-28c-0.6-0.4-0.6-1.3,0-1.7l48.5-28c1.2-0.7,2.7-0.7,3.9,0l48.5,28C340.2,76.1,340.2,77,339.5,77.4
				"/>
			<path style="clip-path:url(#SVGID_00000181085470893128866530000014227961288282260367_);fill:#EF4365;" d="M339.5,148.9
				l-44,25.4c-0.6,0.4-1.4-0.1-1.4-0.8v-50.8c0-0.7,0.8-1.2,1.4-0.8l44,25.4C340.2,147.6,340.2,148.5,339.5,148.9"/>
		</g>
	</g>
</g>
</svg>
