<?xml version="1.0" encoding="UTF-8"?>
<svg id="Layer_2" data-name="Layer 2" xmlns="http://www.w3.org/2000/svg" viewBox="0 0 406.47 91">
  <defs>
    <style>
      .cls-1 {
        fill: #34afe4;
      }

      .cls-1, .cls-2 {
        stroke-width: 0px;
      }

      .cls-2 {
        fill: #173159;
      }
    </style>
  </defs>
  <g id="Layer_1-2" data-name="Layer 1">
    <g>
      <path class="cls-1" d="m3.46,67.78l17.53-10.15,17.6,10.13.03,20.25L3.46,67.78Zm19.79-11.46l16.43-9.5,16.45,9.5-16.41,9.48-16.48-9.48Zm17.6,11.45l36.27-20.95v20.26l-36.24,20.94-.03-20.25Zm-18.74-32.39l16.43-9.52v19l-16.43,9.5v-18.98Zm18.7,9.49v-19.01l16.46,9.51v19.01l-16.46-9.5ZM2.27,25.27l17.58,10.11v20.29l-17.53,10.15-.05-40.55Zm1.13-1.96L38.55,2.99v20.25l-17.57,10.18L3.4,23.31Zm37.41-.07V2.99l35.12,20.28-17.53,10.13-17.59-10.16Zm-1.62-23.24L.57,22.33l-.08.05-.48.83.06,44.58v.1l.49.84,38.64,22.24.08.05h.96s38.58-22.29,38.58-22.29l.08-.05.48-.83v-23.19l-1.52-.87-18.32,10.58v-19l19.41-11.21v-1.75L40.25.05l-.08-.05h-.97Z"/>
      <g>
        <path class="cls-2" d="m402.5,17.48c0,.48-.33.81-.95.81h-1.23v-1.63h1.2c.61,0,.98.27.98.82m1.24-.07c0-1.15-.85-1.83-2.18-1.83h-2.47v5.56h1.23v-1.79h.97l1.18,1.79h1.43l-1.36-1.99c.71-.26,1.2-.82,1.2-1.73m2.12,1.08c0,2.57-1.99,4.66-4.63,4.66s-4.6-2.06-4.6-4.63,1.99-4.66,4.63-4.66,4.6,2.06,4.6,4.63m.61,0c0-2.86-2.28-5.21-5.21-5.21s-5.24,2.38-5.24,5.24,2.28,5.21,5.21,5.21,5.24-2.38,5.24-5.24"/>
        <path class="cls-2" d="m344.2,25.21c0,2.92-2.13,4.9-5.84,4.9h-7.72v-9.95h7.58c3.71,0,5.99,1.68,5.99,4.95v.1Zm8.76,22.72l-8.47-12.38c4.41-1.63,7.43-5.15,7.43-10.74v-.1c0-7.13-4.9-11.44-13.07-11.44h-15.84v34.66h7.62v-11.09h5.99l7.43,11.09h8.91Zm-49.35-14.51h-9.21l4.61-11.24,4.6,11.24Zm13.86,14.51l-14.85-34.9h-7.03l-14.85,34.9h7.77l3.17-7.77h14.65l3.17,7.77h7.97Zm-66.78-16.98v-14.06h10.69c5.59,0,8.86,2.57,8.86,6.83v.1c0,4.46-3.71,7.13-8.91,7.13h-10.64Zm-3.91,16.98h3.91v-13.47h9.9l10.05,13.47h4.8l-10.64-14.16c5.45-.99,9.4-4.36,9.4-10.1v-.1c0-2.72-.99-5.15-2.67-6.83-2.18-2.18-5.6-3.47-9.85-3.47h-14.9v34.66Zm-32.9,0h25.3v-3.56h-21.39v-12.13h18.91v-3.56h-18.91v-11.83h21.14v-3.56h-25.05v34.66Zm-32.56-3.51v-12.23h10.94c6.04,0,9.21,2.18,9.21,5.94v.1c0,3.86-3.27,6.19-8.51,6.19h-11.63Zm0-15.69v-11.93h10.54c4.95,0,7.68,2.23,7.68,5.64v.1c0,4.06-3.27,6.19-7.97,6.19h-10.25Zm-3.86,19.21h15.4c7.57,0,12.57-3.51,12.57-9.46v-.1c0-4.75-3.32-7.13-7.42-8.37,2.72-1.19,5.49-3.51,5.49-8.02v-.1c0-2.23-.79-4.06-2.23-5.55-1.98-1.93-5.1-3.07-9.06-3.07h-14.75v34.66Zm-24.93,0h3.96v-13.76l14.41-20.89h-4.55l-11.78,17.33-11.68-17.33h-4.75l14.41,20.94v13.71Zm-31.86.59c6.29,0,10.25-2.43,13.86-6.09l-2.58-2.53c-3.32,3.17-6.44,5-11.19,5-7.62,0-13.42-6.29-13.42-14.31v-.1c0-7.97,5.74-14.21,13.42-14.21,4.7,0,7.97,1.98,10.89,4.75l2.67-2.87c-3.46-3.27-7.23-5.5-13.51-5.5-10.2,0-17.53,8.12-17.53,17.92v.1c0,9.95,7.38,17.82,17.38,17.82"/>
        <polygon class="cls-2" points="391.09 47.94 376.34 27.99 390.45 13.28 381.24 13.28 367.18 28.43 367.18 13.28 359.56 13.28 359.56 47.94 367.18 47.94 367.18 37.34 371.19 33.18 381.94 47.94 391.09 47.94"/>
      </g>
      <g>
        <path class="cls-2" d="m105.71,64.71v-2.14h10.81v2.14h-4.17v12.67h-2.42v-12.67h-4.22Z"/>
        <path class="cls-2" d="m121.12,77.38h-2.36v-15.31h2.36v5.06c1.07-.53,2.05-.8,2.96-.8,1.44,0,2.42.41,2.95,1.22.53.81.79,2.16.79,4.03v5.79h-2.36v-5.73c0-1.17-.12-2-.37-2.49s-.76-.74-1.56-.74c-.69,0-1.38.12-2.08.35l-.35.13v8.48Z"/>
        <path class="cls-2" d="m138.2,75.43l.61-.06.04,1.75c-1.64.33-3.1.5-4.37.5-1.6,0-2.75-.44-3.45-1.32s-1.05-2.28-1.05-4.22c0-3.83,1.56-5.75,4.69-5.75s4.54,1.65,4.54,4.95l-.15,1.69h-6.7c.01.89.21,1.55.58,1.97.37.42,1.07.63,2.1.63s2.08-.04,3.16-.13Zm-1.3-4.28c0-1.07-.17-1.81-.51-2.24-.34-.42-.91-.64-1.72-.64s-1.39.22-1.76.67c-.37.45-.56,1.18-.57,2.21h4.56Z"/>
        <path class="cls-2" d="m147,77.38v-14.81h2.4v14.81h-2.4Z"/>
        <path class="cls-2" d="m160.84,62.07v15.31h-2.33v-.56c-1.05.53-2.02.8-2.9.8-1.41,0-2.45-.43-3.1-1.28-.66-.85-.98-2.28-.98-4.28s.36-3.46,1.09-4.37c.73-.91,1.86-1.36,3.41-1.36.52,0,1.34.09,2.46.28v-4.54h2.36Zm-2.72,13.06l.37-.15v-6.4c-.86-.14-1.67-.22-2.4-.22-1.46,0-2.18,1.21-2.18,3.63,0,1.33.17,2.25.51,2.76.34.51.88.77,1.61.77s1.43-.13,2.1-.39Z"/>
        <path class="cls-2" d="m171.26,75.43l.61-.06.04,1.75c-1.64.33-3.1.5-4.37.5-1.6,0-2.75-.44-3.45-1.32s-1.05-2.28-1.05-4.22c0-3.83,1.56-5.75,4.69-5.75s4.54,1.65,4.54,4.95l-.15,1.69h-6.7c.01.89.21,1.55.58,1.97.37.42,1.07.63,2.1.63s2.08-.04,3.16-.13Zm-1.3-4.28c0-1.07-.17-1.81-.51-2.24-.34-.42-.91-.64-1.72-.64s-1.39.22-1.76.67c-.37.45-.56,1.18-.57,2.21h4.56Z"/>
        <path class="cls-2" d="m176.84,77.38h-2.36v-10.81h2.34v.67c1.05-.61,2.05-.91,2.98-.91,1.44,0,2.42.41,2.95,1.22.53.81.79,2.16.79,4.03v5.79h-2.33v-5.73c0-1.17-.13-2-.38-2.49-.25-.49-.77-.74-1.55-.74-.73,0-1.44.14-2.12.43l-.32.13v8.39Z"/>
        <path class="cls-2" d="m192.06,68.58h-2.98v4.76c0,.88.06,1.46.19,1.75.13.29.46.43.99.43l1.77-.06.11,1.88c-.97.19-1.7.28-2.21.28-1.23,0-2.06-.28-2.52-.84-.45-.56-.68-1.62-.68-3.18v-5.02h-1.38v-2.01h1.38v-3.13h2.33v3.13h2.98v2.01Z"/>
        <path class="cls-2" d="m194.31,64.73v-2.49h2.36v2.49h-2.36Zm0,12.65v-10.81h2.36v10.81h-2.36Z"/>
        <path class="cls-2" d="m205.59,68.58h-2.98v4.76c0,.88.06,1.46.19,1.75.13.29.46.43.99.43l1.77-.06.11,1.88c-.97.19-1.7.28-2.21.28-1.23,0-2.06-.28-2.52-.84-.45-.56-.68-1.62-.68-3.18v-5.02h-1.38v-2.01h1.38v-3.13h2.33v3.13h2.98v2.01Z"/>
        <path class="cls-2" d="m207.32,66.57h2.31l2.29,8.8h.58l2.29-8.8h2.33l-4.11,15.46h-2.31l1.3-4.65h-1.86l-2.83-10.81Z"/>
        <path class="cls-2" d="m229.44,64.43c-1.83,0-2.75.64-2.75,1.92,0,.66.22,1.13.65,1.42s1.39.63,2.86,1.04c1.48.41,2.52.9,3.12,1.47.61.57.91,1.47.91,2.69,0,1.56-.44,2.72-1.33,3.49-.89.77-2.09,1.16-3.62,1.16-1.23,0-2.58-.14-4.06-.43l-.78-.15.24-1.92c1.95.26,3.43.39,4.45.39,1.79,0,2.68-.79,2.68-2.38,0-.62-.2-1.08-.61-1.37-.4-.3-1.31-.62-2.72-.97-1.41-.35-2.46-.84-3.16-1.46-.69-.62-1.04-1.6-1.04-2.94s.44-2.35,1.31-3.04c.87-.68,2.08-1.03,3.62-1.03,1.11,0,2.42.13,3.94.39l.76.13-.19,1.95c-2.02-.23-3.44-.35-4.28-.35Z"/>
        <path class="cls-2" d="m244.42,75.43l.61-.06.04,1.75c-1.64.33-3.1.5-4.37.5-1.6,0-2.75-.44-3.45-1.32s-1.05-2.28-1.05-4.22c0-3.83,1.56-5.75,4.69-5.75s4.54,1.65,4.54,4.95l-.15,1.69h-6.7c.01.89.21,1.55.58,1.97.37.42,1.07.63,2.1.63s2.08-.04,3.16-.13Zm-1.3-4.28c0-1.07-.17-1.81-.51-2.24-.34-.42-.91-.64-1.72-.64s-1.39.22-1.76.67c-.37.45-.56,1.18-.57,2.21h4.56Z"/>
        <path class="cls-2" d="m251.86,66.33c.76,0,1.66.1,2.7.3l.54.11-.09,1.86c-1.14-.12-1.98-.17-2.53-.17-1.1,0-1.83.25-2.21.74-.38.49-.56,1.41-.56,2.77s.18,2.29.54,2.81c.36.52,1.11.78,2.25.78l2.53-.17.06,1.88c-1.46.26-2.55.39-3.29.39-1.64,0-2.8-.44-3.47-1.33-.67-.89-1.01-2.34-1.01-4.36s.35-3.46,1.06-4.31c.71-.86,1.86-1.29,3.46-1.29Z"/>
        <path class="cls-2" d="m263.79,66.57h2.33v10.81h-2.33v-.67c-1.05.61-2.03.91-2.92.91-1.48,0-2.48-.4-2.98-1.2-.5-.8-.76-2.2-.76-4.21v-5.64h2.36v5.67c0,1.3.11,2.17.32,2.62.22.45.72.67,1.51.67s1.49-.14,2.14-.43l.32-.13v-8.39Z"/>
        <path class="cls-2" d="m268.44,77.38v-10.81h2.34v1.3c1.22-.79,2.45-1.3,3.68-1.54v2.36c-1.24.25-2.3.56-3.18.95l-.48.19v7.55h-2.36Z"/>
        <path class="cls-2" d="m276.66,64.73v-2.49h2.36v2.49h-2.36Zm0,12.65v-10.81h2.36v10.81h-2.36Z"/>
        <path class="cls-2" d="m288.01,68.58h-2.98v4.76c0,.88.06,1.46.19,1.75.13.29.46.43.99.43l1.77-.06.11,1.88c-.97.19-1.7.28-2.21.28-1.23,0-2.06-.28-2.52-.84-.45-.56-.68-1.62-.68-3.18v-5.02h-1.38v-2.01h1.38v-3.13h2.33v3.13h2.98v2.01Z"/>
        <path class="cls-2" d="m289.93,66.57h2.31l2.29,8.8h.58l2.29-8.8h2.33l-4.11,15.46h-2.31l1.3-4.65h-1.86l-2.83-10.81Z"/>
        <path class="cls-2" d="m312.53,77.61c-2.16,0-3.63-.6-4.4-1.79s-1.16-3.16-1.16-5.9.39-4.69,1.17-5.85,2.24-1.74,4.39-1.74c1.28,0,2.7.18,4.24.54l-.09,1.95c-1.3-.23-2.59-.35-3.89-.35s-2.18.39-2.64,1.16c-.46.77-.69,2.22-.69,4.35s.22,3.58.67,4.35c.45.77,1.32,1.16,2.62,1.16s2.61-.11,3.94-.32l.06,1.99c-1.48.32-2.89.48-4.22.48Z"/>
        <path class="cls-2" d="m319.87,67.73c.74-.94,1.98-1.41,3.71-1.41s2.97.47,3.71,1.41c.74.94,1.11,2.34,1.11,4.22s-.36,3.29-1.08,4.24-1.97,1.43-3.74,1.43-3.02-.48-3.74-1.43c-.72-.95-1.08-2.36-1.08-4.24s.37-3.28,1.11-4.22Zm1.76,7.03c.33.58.98.87,1.95.87s1.61-.29,1.95-.87c.33-.58.5-1.52.5-2.83s-.18-2.24-.53-2.79c-.35-.55-.99-.82-1.91-.82s-1.56.27-1.91.82-.53,1.48-.53,2.79.17,2.26.5,2.83Z"/>
        <path class="cls-2" d="m332.87,77.38h-2.36v-10.81h2.34v.67c1.02-.61,1.96-.91,2.81-.91,1.25,0,2.17.35,2.75,1.06,1.31-.71,2.62-1.06,3.91-1.06s2.21.4,2.75,1.2c.53.8.8,2.15.8,4.05v5.79h-2.33v-5.73c0-1.17-.12-2-.36-2.49s-.73-.74-1.48-.74c-.65,0-1.35.14-2.1.43l-.37.15c.12.29.17,1.21.17,2.77v5.6h-2.33v-5.56c0-1.28-.12-2.17-.35-2.66s-.73-.74-1.51-.74c-.72,0-1.39.14-2.01.43l-.32.13v8.39Z"/>
        <path class="cls-2" d="m348.24,82.03v-15.46h2.34v.67c.99-.61,1.92-.91,2.79-.91,1.43,0,2.47.44,3.13,1.31.66.87.99,2.33.99,4.39s-.38,3.5-1.14,4.33c-.76.84-1.99,1.25-3.71,1.25-.59,0-1.28-.07-2.05-.2v4.61h-2.36Zm4.71-13.6c-.68,0-1.35.15-2.03.45l-.32.15v6.38c.58.12,1.21.17,1.9.17.98,0,1.66-.28,2.03-.84.37-.56.56-1.52.56-2.88,0-2.29-.71-3.44-2.14-3.44Z"/>
        <path class="cls-2" d="m368.09,69.9v4.93c.01.32.1.55.25.7s.39.25.7.29l-.06,1.79c-1.24,0-2.2-.27-2.88-.8-1.15.53-2.31.8-3.48.8-2.15,0-3.22-1.15-3.22-3.44,0-1.09.29-1.89.88-2.38.58-.49,1.48-.79,2.69-.89l2.79-.24v-.78c0-.58-.13-.98-.38-1.21-.25-.23-.62-.35-1.11-.35-.92,0-2.08.06-3.46.17l-.69.04-.09-1.67c1.57-.37,3.02-.56,4.33-.56s2.27.28,2.85.85c.58.57.88,1.47.88,2.71Zm-4.84,2.68c-.99.09-1.49.63-1.49,1.62s.44,1.49,1.32,1.49c.72,0,1.48-.12,2.29-.35l.39-.13v-2.88l-2.51.24Z"/>
        <path class="cls-2" d="m373.63,77.38h-2.36v-10.81h2.34v.67c1.05-.61,2.05-.91,2.98-.91,1.44,0,2.42.41,2.95,1.22.53.81.79,2.16.79,4.03v5.79h-2.33v-5.73c0-1.17-.13-2-.38-2.49-.25-.49-.77-.74-1.55-.74-.73,0-1.44.14-2.12.43l-.32.13v8.39Z"/>
        <path class="cls-2" d="m381.62,66.57h2.31l2.29,8.8h.58l2.29-8.8h2.33l-4.11,15.46h-2.31l1.3-4.65h-1.86l-2.83-10.81Z"/>
      </g>
      <g>
        <path class="cls-2" d="m395.95,67.04v-.55h4v.55h-1.69v4.98h-.61v-4.98h-1.7Z"/>
        <path class="cls-2" d="m401.06,72.03v-5.54h1.11l1.57,4.68,1.57-4.68h1.11v5.54h-.62v-4.88h-.11l-1.61,4.68h-.69l-1.61-4.68h-.11v4.88h-.62Z"/>
      </g>
    </g>
  </g>
</svg>